{
  "accessors": [
    {
      "bufferView": 2,
      "componentType": 5126,
      "count": 478,
      "max": [
        -92.87400817871094,
        33.96061706542969,
        136.24929809570313
      ],
      "min": [
        -395.9393310546875,
        -135.77194213867188,
        1.5327303409576416
      ],
      "type": "VEC3"
    },
    {
      "bufferView": 2,
      "byteOffset": 5736,
      "componentType": 5126,
      "count": 478,
      "max": [
        1.0,
        0.9998477697372437,
        1.0
      ],
      "min": [
        -0.9935737252235413,
        -0.9890177845954895,
        -0.9890138506889343
      ],
      "type": "VEC3"
    },
    {
      "bufferView": 1,
      "componentType": 5126,
      "count": 478,
      "max": [
        1.0,
        0.0
      ],
      "min": [
        0.0,
        -1.0
      ],
      "type": "VEC2"
    },
    {
      "bufferView": 0,
      "componentType": 5125,
      "count": 834,
      "type": "SCALAR"
    },
    {
      "bufferView": 2,
      "byteOffset": 11472,
      "componentType": 5126,
      "count": 211,
      "max": [
        -93.95857238769531,
        32.83572006225586,
        134.8564453125
      ],
      "min": [
        -394.8547668457031,
        -134.75106811523438,
        2.090510129928589
      ],
      "type": "VEC3"
    },
    {
      "bufferView": 2,
      "byteOffset": 14004,
      "componentType": 5126,
      "count": 211,
      "max": [
        1.0,
        1.0,
        0.9188694953918457
      ],
      "min": [
        -0.8786166906356812,
        -0.9998477697372437,
        -0.866028904914856
      ],
      "type": "VEC3"
    },
    {
      "bufferView": 1,
      "byteOffset": 3824,
      "componentType": 5126,
      "count": 211,
      "max": [
        1.0,
        0.0
      ],
      "min": [
        0.0,
        -1.0
      ],
      "type": "VEC2"
    },
    {
      "bufferView": 0,
      "byteOffset": 3336,
      "componentType": 5125,
      "count": 441,
      "type": "SCALAR"
    },
    {
      "bufferView": 2,
      "byteOffset": 16536,
      "componentType": 5126,
      "count": 1950,
      "max": [
        -92.87400817871094,
        33.96061706542969,
        136.24929809570313
      ],
      "min": [
        -395.9393310546875,
        -135.77194213867188,
        1.5327303409576416
      ],
      "type": "VEC3"
    },
    {
      "bufferView": 2,
      "byteOffset": 39936,
      "componentType": 5126,
      "count": 1950,
      "max": [
        1.0,
        0.9641129970550537,
        0.9998478889465332
      ],
      "min": [
        -1.0,
        -0.9922829270362854,
        -0.9998477101325989
      ],
      "type": "VEC3"
    },
    {
      "bufferView": 1,
      "byteOffset": 5512,
      "componentType": 5126,
      "count": 1950,
      "max": [
        4.667933940887451,
        1.0
      ],
      "min": [
        0.0,
        -1.0
      ],
      "type": "VEC2"
    },
    {
      "bufferView": 0,
      "byteOffset": 5100,
      "componentType": 5125,
      "count": 2946,
      "type": "SCALAR"
    },
    {
      "bufferView": 2,
      "byteOffset": 63336,
      "componentType": 5126,
      "count": 2229,
      "max": [
        -95.5,
        30.5116024017334,
        39.673492431640625
      ],
      "min": [
        -394.5,
        -161.70065307617188,
        -68.76942443847656
      ],
      "type": "VEC3"
    },
    {
      "bufferView": 2,
      "byteOffset": 90084,
      "componentType": 5126,
      "count": 2229,
      "max": [
        1.0,
        1.0,
        1.0
      ],
      "min": [
        -1.0,
        -1.0,
        -1.0
      ],
      "type": "VEC3"
    },
    {
      "bufferView": 1,
      "byteOffset": 21112,
      "componentType": 5126,
      "count": 2229,
      "max": [
        1.0,
        0.0
      ],
      "min": [
        0.0,
        -1.0
      ],
      "type": "VEC2"
    },
    {
      "bufferView": 0,
      "byteOffset": 16884,
      "componentType": 5125,
      "count": 3513,
      "type": "SCALAR"
    },
    {
      "bufferView": 2,
      "byteOffset": 116832,
      "componentType": 5126,
      "count": 1221,
      "max": [
        -96.25,
        29.231264114379883,
        39.015933990478516
      ],
      "min": [
        -393.75,
        -160.95065307617188,
        -67.48908233642578
      ],
      "type": "VEC3"
    },
    {
      "bufferView": 2,
      "byteOffset": 131484,
      "componentType": 5126,
      "count": 1221,
      "max": [
        1.0,
        1.0,
        1.0
      ],
      "min": [
        -1.0,
        -1.0,
        -1.0
      ],
      "type": "VEC3"
    },
    {
      "bufferView": 1,
      "byteOffset": 38944,
      "componentType": 5126,
      "count": 1221,
      "max": [
        1.0,
        0.0
      ],
      "min": [
        0.0,
        -1.0
      ],
      "type": "VEC2"
    },
    {
      "bufferView": 0,
      "byteOffset": 30936,
      "componentType": 5125,
      "count": 2061,
      "type": "SCALAR"
    },
    {
      "bufferView": 2,
      "byteOffset": 146136,
      "componentType": 5126,
      "count": 8721,
      "max": [
        -95.5,
        30.5116024017334,
        39.673492431640625
      ],
      "min": [
        -394.5,
        -161.70065307617188,
        -68.76942443847656
      ],
      "type": "VEC3"
    },
    {
      "bufferView": 2,
      "byteOffset": 250788,
      "componentType": 5126,
      "count": 8721,
      "max": [
        1.0,
        1.0,
        1.0
      ],
      "min": [
        -1.0,
        -1.0,
        -1.0
      ],
      "type": "VEC3"
    },
    {
      "bufferView": 1,
      "byteOffset": 48712,
      "componentType": 5126,
      "count": 8721,
      "max": [
        6.151388168334961,
        1.0
      ],
      "min": [
        0.0,
        -1.0
      ],
      "type": "VEC2"
    },
    {
      "bufferView": 0,
      "byteOffset": 39180,
      "componentType": 5125,
      "count": 13452,
      "type": "SCALAR"
    },
    {
      "bufferView": 2,
      "byteOffset": 355440,
      "componentType": 5126,
      "count": 76,
      "max": [
        -155.88873291015625,
        -143.25450134277344,
        33.09018325805664
      ],
      "min": [
        -334.1520690917969,
        -159.7122802734375,
        14.678967475891113
      ],
      "type": "VEC3"
    },
    {
      "bufferView": 2,
      "byteOffset": 356352,
      "componentType": 5126,
      "count": 76,
      "max": [
        0.8324769735336304,
        -0.0625220313668251,
        0.8569572567939758
      ],
      "min": [
        -0.840300977230072,
        -0.9243044853210449,
        0.3595886826515198
      ],
      "type": "VEC3"
    },
    {
      "bufferView": 1,
      "byteOffset": 118480,
      "componentType": 5126,
      "count": 76,
      "max": [
        1.0,
        0.0
      ],
      "min": [
        0.0,
        -1.0
      ],
      "type": "VEC2"
    },
    {
      "bufferView": 0,
      "byteOffset": 92988,
      "componentType": 5125,
      "count": 108,
      "type": "SCALAR"
    },
    {
      "bufferView": 2,
      "byteOffset": 357264,
      "componentType": 5126,
      "count": 92,
      "max": [
        -155.70223999023438,
        -141.91799926757813,
        32.40919494628906
      ],
      "min": [
        -334.3439025878906,
        -159.2679443359375,
        14.047303199768066
      ],
      "type": "VEC3"
    },
    {
      "bufferView": 2,
      "byteOffset": 358368,
      "componentType": 5126,
      "count": 92,
      "max": [
        0.8403010368347168,
        0.924304187297821,
        -0.3595903515815735
      ],
      "min": [
        -0.8324771523475647,
        0.06252199411392212,
        -0.848048210144043
      ],
      "type": "VEC3"
    },
    {
      "bufferView": 1,
      "byteOffset": 119088,
      "componentType": 5126,
      "count": 92,
      "max": [
        1.0,
        0.0
      ],
      "min": [
        0.0,
        -1.0
      ],
      "type": "VEC2"
    },
    {
      "bufferView": 0,
      "byteOffset": 93420,
      "componentType": 5125,
      "count": 132,
      "type": "SCALAR"
    },
    {
      "bufferView": 2,
      "byteOffset": 359472,
      "componentType": 5126,
      "count": 430,
      "max": [
        -155.70223999023438,
        -141.91799926757813,
        33.09018325805664
      ],
      "min": [
        -334.3439025878906,
        -159.7122802734375,
        14.047303199768066
      ],
      "type": "VEC3"
    },
    {
      "bufferView": 2,
      "byteOffset": 364632,
      "componentType": 5126,
      "count": 430,
      "max": [
        1.0,
        0.9215293526649475,
        0.8910079002380371
      ],
      "min": [
        -1.0,
        -0.8480533957481384,
        -0.9329731464385986
      ],
      "type": "VEC3"
    },
    {
      "bufferView": 1,
      "byteOffset": 119824,
      "componentType": 5126,
      "count": 430,
      "max": [
        0.38832226395606995,
        1.0
      ],
      "min": [
        0.0,
        -1.0
      ],
      "type": "VEC2"
    },
    {
      "bufferView": 0,
      "byteOffset": 93948,
      "componentType": 5125,
      "count": 648,
      "type": "SCALAR"
    }
  ],
  "asset": {
    "extras": {
      "author": "envoprint (https://sketchfab.com/keithenvoprint)",
      "license": "CC-BY-4.0 (http://creativecommons.org/licenses/by/4.0/)",
      "source": "https://sketchfab.com/3d-models/pink-egg-box-c64b36de61874d6f943550bc973cc9e0",
      "title": "Pink Egg Box"
    },
    "generator": "Sketchfab-12.66.0",
    "version": "2.0"
  },
  "bufferViews": [
    {
      "buffer": 0,
      "byteLength": 96540,
      "name": "floatBufferViews",
      "target": 34963
    },
    {
      "buffer": 0,
      "byteLength": 123264,
      "byteOffset": 96540,
      "byteStride": 8,
      "name": "floatBufferViews",
      "target": 34962
    },
    {
      "buffer": 0,
      "byteLength": 369792,
      "byteOffset": 219804,
      "byteStride": 12,
      "name": "floatBufferViews",
      "target": 34962
    }
  ],
  "buffers": [
    {
      "byteLength": 589596,
      "uri": "scene.bin"
    }
  ],
  "images": [
    {
      "uri": "textures/Print-face_Main_baseColor.png"
    },
    {
      "uri": "textures/Die-face_Main_U_baseColor.png"
    },
    {
      "uri": "textures/Edges_Main_Unit_baseColor.png"
    },
    {
      "uri": "textures/Print-face_lid_baseColor.png"
    },
    {
      "uri": "textures/Die-face_lid_baseColor.png"
    },
    {
      "uri": "textures/Edges_lid_baseColor.png"
    },
    {
      "uri": "textures/Print-face_Catc_baseColor.png"
    },
    {
      "uri": "textures/Die-face_Catch_baseColor.png"
    },
    {
      "uri": "textures/Edges_Catch_baseColor.png"
    }
  ],
  "materials": [
    {
      "doubleSided": true,
      "name": "Print-face_Main",
      "pbrMetallicRoughness": {
        "baseColorTexture": {
          "index": 0
        },
        "metallicFactor": 0.0,
        "roughnessFactor": 0.6
      }
    },
    {
      "doubleSided": true,
      "name": "Die-face_Main_U",
      "pbrMetallicRoughness": {
        "baseColorTexture": {
          "index": 1
        },
        "metallicFactor": 0.0,
        "roughnessFactor": 0.6
      }
    },
    {
      "doubleSided": true,
      "name": "Edges_Main_Unit",
      "pbrMetallicRoughness": {
        "baseColorTexture": {
          "index": 2
        },
        "metallicFactor": 0.0,
        "roughnessFactor": 0.6
      }
    },
    {
      "doubleSided": true,
      "name": "Print-face_lid",
      "pbrMetallicRoughness": {
        "baseColorTexture": {
          "index": 3
        },
        "metallicFactor": 0.0,
        "roughnessFactor": 0.6
      }
    },
    {
      "doubleSided": true,
      "name": "Die-face_lid",
      "pbrMetallicRoughness": {
        "baseColorTexture": {
          "index": 4
        },
        "metallicFactor": 0.0,
        "roughnessFactor": 0.6
      }
    },
    {
      "doubleSided": true,
      "name": "Edges_lid",
      "pbrMetallicRoughness": {
        "baseColorTexture": {
          "index": 5
        },
        "metallicFactor": 0.0,
        "roughnessFactor": 0.6
      }
    },
    {
      "doubleSided": true,
      "name": "Print-face_Catc",
      "pbrMetallicRoughness": {
        "baseColorTexture": {
          "index": 6
        },
        "metallicFactor": 0.0,
        "roughnessFactor": 0.6
      }
    },
    {
      "doubleSided": true,
      "name": "Die-face_Catch",
      "pbrMetallicRoughness": {
        "baseColorTexture": {
          "index": 7
        },
        "metallicFactor": 0.0,
        "roughnessFactor": 0.6
      }
    },
    {
      "doubleSided": true,
      "name": "Edges_Catch",
      "pbrMetallicRoughness": {
        "baseColorTexture": {
          "index": 8
        },
        "metallicFactor": 0.0,
        "roughnessFactor": 0.6
      }
    }
  ],
  "meshes": [
    {
      "name": "Object_0",
      "primitives": [
        {
          "attributes": {
            "NORMAL": 1,
            "POSITION": 0,
            "TEXCOORD_0": 2
          },
          "indices": 3,
          "material": 3,
          "mode": 4
        }
      ]
    },
    {
      "name": "Object_1",
      "primitives": [
        {
          "attributes": {
            "NORMAL": 5,
            "POSITION": 4,
            "TEXCOORD_0": 6
          },
          "indices": 7,
          "material": 4,
          "mode": 4
        }
      ]
    },
    {
      "name": "Object_2",
      "primitives": [
        {
          "attributes": {
            "NORMAL": 9,
            "POSITION": 8,
            "TEXCOORD_0": 10
          },
          "indices": 11,
          "material": 5,
          "mode": 4
        }
      ]
    },
    {
      "name": "Object_3",
      "primitives": [
        {
          "attributes": {
            "NORMAL": 13,
            "POSITION": 12,
            "TEXCOORD_0": 14
          },
          "indices": 15,
          "material": 0,
          "mode": 4
        }
      ]
    },
    {
      "name": "Object_4",
      "primitives": [
        {
          "attributes": {
            "NORMAL": 17,
            "POSITION": 16,
            "TEXCOORD_0": 18
          },
          "indices": 19,
          "material": 1,
          "mode": 4
        }
      ]
    },
    {
      "name": "Object_5",
      "primitives": [
        {
          "attributes": {
            "NORMAL": 21,
            "POSITION": 20,
            "TEXCOORD_0": 22
          },
          "indices": 23,
          "material": 2,
          "mode": 4
        }
      ]
    },
    {
      "name": "Object_6",
      "primitives": [
        {
          "attributes": {
            "NORMAL": 25,
            "POSITION": 24,
            "TEXCOORD_0": 26
          },
          "indices": 27,
          "material": 6,
          "mode": 4
        }
      ]
    },
    {
      "name": "Object_7",
      "primitives": [
        {
          "attributes": {
            "NORMAL": 29,
            "POSITION": 28,
            "TEXCOORD_0": 30
          },
          "indices": 31,
          "material": 7,
          "mode": 4
        }
      ]
    },
    {
      "name": "Object_8",
      "primitives": [
        {
          "attributes": {
            "NORMAL": 33,
            "POSITION": 32,
            "TEXCOORD_0": 34
          },
          "indices": 35,
          "material": 8,
          "mode": 4
        }
      ]
    }
  ],
  "nodes": [
    {
      "children": [
        1
      ],
      "matrix": [
        1.0,
        0.0,
        0.0,
        0.0,
        0.0,
        2.220446049250313e-16,
        -1.0,
        0.0,
        0.0,
        1.0,
        2.220446049250313e-16,
        0.0,
        0.0,
        0.0,
        0.0,
        1.0
      ],
      "name": "Sketchfab_model"
    },
    {
      "children": [
        2,
        3,
        4,
        5,
        6,
        7,
        8,
        9,
        10
      ],
      "name": "SmallEggBox.3ds"
    },
    {
      "mesh": 0,
      "name": "Object_2"
    },
    {
      "mesh": 1,
      "name": "Object_3"
    },
    {
      "mesh": 2,
      "name": "Object_4"
    },
    {
      "mesh": 3,
      "name": "Object_5"
    },
    {
      "mesh": 4,
      "name": "Object_6"
    },
    {
      "mesh": 5,
      "name": "Object_7"
    },
    {
      "mesh": 6,
      "name": "Object_8"
    },
    {
      "mesh": 7,
      "name": "Object_9"
    },
    {
      "mesh": 8,
      "name": "Object_10"
    }
  ],
  "samplers": [
    {
      "magFilter": 9729,
      "minFilter": 9987,
      "wrapS": 10497,
      "wrapT": 10497
    }
  ],
  "scene": 0,
  "scenes": [
    {
      "name": "Sketchfab_Scene",
      "nodes": [
        0
      ]
    }
  ],
  "textures": [
    {
      "sampler": 0,
      "source": 0
    },
    {
      "sampler": 0,
      "source": 1
    },
    {
      "sampler": 0,
      "source": 2
    },
    {
      "sampler": 0,
      "source": 3
    },
    {
      "sampler": 0,
      "source": 4
    },
    {
      "sampler": 0,
      "source": 5
    },
    {
      "sampler": 0,
      "source": 6
    },
    {
      "sampler": 0,
      "source": 7
    },
    {
      "sampler": 0,
      "source": 8
    }
  ]
}
