{
  "accessors": [
    {
      "bufferView": 2,
      "componentType": 5126,
      "count": 10770,
      "max": [
        100.0036849975586,
        42.52483367919922,
        100.0
      ],
      "min": [
        -100.00995635986328,
        -21.67122459411621,
        -100.00001525878906
      ],
      "type": "VEC3"
    },
    {
      "bufferView": 2,
      "byteOffset": 129240,
      "componentType": 5126,
      "count": 10770,
      "max": [
        1.0,
        1.0,
        1.0
      ],
      "min": [
        -1.0,
        -1.0,
        -1.0
      ],
      "type": "VEC3"
    },
    {
      "bufferView": 1,
      "componentType": 5126,
      "count": 10770,
      "max": [
        0.9933652877807617,
        0.9181705117225647
      ],
      "min": [
        0.5828279256820679,
        0.29761233925819397
      ],
      "type": "VEC2"
    },
    {
      "bufferView": 0,
      "componentType": 5125,
      "count": 20544,
      "type": "SCALAR"
    }
  ],
  "asset": {
    "extras": {
      "author": "xaqior (https://sketchfab.com/xaqior)",
      "license": "CC-BY-4.0 (http://creativecommons.org/licenses/by/4.0/)",
      "source": "https://sketchfab.com/3d-models/eggs-and-carton-0e1ad9e204a1487b8967d6a990b14ea5",
      "title": "Eggs and carton"
    },
    "generator": "Sketchfab-12.68.0",
    "version": "2.0"
  },
  "bufferViews": [
    {
      "buffer": 0,
      "byteLength": 82176,
      "name": "floatBufferViews",
      "target": 34963
    },
    {
      "buffer": 0,
      "byteLength": 86160,
      "byteOffset": 82176,
      "byteStride": 8,
      "name": "floatBufferViews",
      "target": 34962
    },
    {
      "buffer": 0,
      "byteLength": 258480,
      "byteOffset": 168336,
      "byteStride": 12,
      "name": "floatBufferViews",
      "target": 34962
    }
  ],
  "buffers": [
    {
      "byteLength": 426816,
      "uri": "scene.bin"
    }
  ],
  "images": [
    {
      "uri": "textures/Palet_baseColor.png"
    }
  ],
  "materials": [
    {
      "doubleSided": true,
      "name": "Palet",
      "pbrMetallicRoughness": {
        "baseColorTexture": {
          "index": 0
        },
        "metallicFactor": 0.0,
        "roughnessFactor": 0.8211145618000169
      }
    }
  ],
  "meshes": [
    {
      "name": "Cube.052_Palet_0",
      "primitives": [
        {
          "attributes": {
            "NORMAL": 1,
            "POSITION": 0,
            "TEXCOORD_0": 2
          },
          "indices": 3,
          "material": 0,
          "mode": 4
        }
      ]
    }
  ],
  "nodes": [
    {
      "children": [
        1
      ],
      "matrix": [
        1.0,
        0.0,
        0.0,
        0.0,
        0.0,
        2.220446049250313e-16,
        -1.0,
        0.0,
        0.0,
        1.0,
        2.220446049250313e-16,
        0.0,
        0.0,
        0.0,
        0.0,
        1.0
      ],
      "name": "Sketchfab_model"
    },
    {
      "children": [
        2
      ],
      "matrix": [
        0.009999999776482582,
        0.0,
        0.0,
        0.0,
        0.0,
        0.0,
        0.009999999776482582,
        0.0,
        0.0,
        -0.009999999776482582,
        0.0,
        0.0,
        0.0,
        0.0,
        0.0,
        1.0
      ],
      "name": "b5ea3dd07dc54200beb70bd15fd2bd0c.fbx"
    },
    {
      "children": [
        3
      ],
      "name": "RootNode"
    },
    {
      "children": [
        4
      ],
      "matrix": [
        0.2680248022079468,
        0.0,
        0.0,
        0.0,
        0.0,
        0.2680248022079468,
        0.0,
        0.0,
        0.0,
        0.0,
        0.2680248022079468,
        0.0,
        0.003137151710689068,
        5.441562652587891,
        19.631994247436523,
        1.0
      ],
      "name": "Cube.052"
    },
    {
      "mesh": 0,
      "name": "Cube.052_Palet_0"
    }
  ],
  "samplers": [
    {
      "magFilter": 9729,
      "minFilter": 9987,
      "wrapS": 10497,
      "wrapT": 10497
    }
  ],
  "scene": 0,
  "scenes": [
    {
      "name": "Sketchfab_Scene",
      "nodes": [
        0
      ]
    }
  ],
  "textures": [
    {
      "sampler": 0,
      "source": 0
    }
  ]
}
