{
  "accessors": [
    {
      "bufferView": 2,
      "componentType": 5126,
      "count": 336,
      "max": [
        0.10022446513175964,
        0.10022439807653427,
        0.13100075721740723
      ],
      "min": [
        -0.10022434592247009,
        -0.10022441297769547,
        -0.1336883157491684
      ],
      "type": "VEC3"
    },
    {
      "bufferView": 2,
      "byteOffset": 4032,
      "componentType": 5126,
      "count": 336,
      "max": [
        0.9238795638084412,
        0.9238795638084412,
        1.0
      ],
      "min": [
        -0.9238795638084412,
        -0.9238795638084412,
        -1.0
      ],
      "type": "VEC3"
    },
    {
      "bufferView": 1,
      "componentType": 5126,
      "count": 336,
      "max": [
        1.0,
        1.0
      ],
      "min": [
        0.0,
        0.01000000536441803
      ],
      "type": "VEC2"
    },
    {
      "bufferView": 0,
      "componentType": 5125,
      "count": 516,
      "type": "SCALAR"
    }
  ],
  "asset": {
    "extras": {
      "author": "Algui_ (https://sketchfab.com/Algui_)",
      "license": "CC-BY-4.0 (http://creativecommons.org/licenses/by/4.0/)",
      "source": "https://sketchfab.com/3d-models/low-poly-simple-egg-86aa1f28452f4c979a6eb2eb07fddeb7",
      "title": "Low Poly Simple Egg"
    },
    "generator": "Sketchfab-12.67.0",
    "version": "2.0"
  },
  "bufferViews": [
    {
      "buffer": 0,
      "byteLength": 2064,
      "name": "floatBufferViews",
      "target": 34963
    },
    {
      "buffer": 0,
      "byteLength": 2688,
      "byteOffset": 2064,
      "byteStride": 8,
      "name": "floatBufferViews",
      "target": 34962
    },
    {
      "buffer": 0,
      "byteLength": 8064,
      "byteOffset": 4752,
      "byteStride": 12,
      "name": "floatBufferViews",
      "target": 34962
    }
  ],
  "buffers": [
    {
      "byteLength": 12816,
      "uri": "scene.bin"
    }
  ],
  "materials": [
    {
      "doubleSided": true,
      "name": "Oeuf_Beige",
      "pbrMetallicRoughness": {
        "baseColorFactor": [
          0.5686265097019083,
          0.4001160364380469,
          0.29907116357590624,
          1.0
        ],
        "metallicFactor": 0.0,
        "roughnessFactor": 0.7281487501077049
      }
    }
  ],
  "meshes": [
    {
      "name": "Oeuf_Oeuf Beige_0",
      "primitives": [
        {
          "attributes": {
            "NORMAL": 1,
            "POSITION": 0,
            "TEXCOORD_0": 2
          },
          "indices": 3,
          "material": 0,
          "mode": 4
        }
      ]
    }
  ],
  "nodes": [
    {
      "children": [
        1
      ],
      "matrix": [
        4.00168514251709,
        0.0,
        0.0,
        0.0,
        0.0,
        8.885525965045748e-16,
        -4.00168514251709,
        0.0,
        0.0,
        4.00168514251709,
        8.885525965045748e-16,
        0.0,
        0.0,
        0.0,
        0.0,
        1.0
      ],
      "name": "Sketchfab_model"
    },
    {
      "children": [
        2
      ],
      "matrix": [
        0.009999999776482582,
        0.0,
        0.0,
        0.0,
        0.0,
        0.0,
        0.009999999776482582,
        0.0,
        0.0,
        -0.009999999776482582,
        0.0,
        0.0,
        0.0,
        0.0,
        0.0,
        1.0
      ],
      "name": "636f37e887aa49a28fec53310bb0444d.fbx"
    },
    {
      "children": [
        3,
        6,
        8,
        10,
        13
      ],
      "name": "RootNode"
    },
    {
      "children": [
        4
      ],
      "matrix": [
        -29.08647719990347,
        -5.518906457566863,
        -95.51711910171437,
        0.0,
        56.63930913109449,
        79.46723428563203,
        -21.83912397841966,
        0.0,
        77.11008775993375,
        -60.45246356562044,
        -19.98834696773717,
        0.0,
        148.38121032714844,
        93.11676025390625,
        -51.3371696472168,
        1.0
      ],
      "name": "Light"
    },
    {
      "children": [
        5
      ],
      "matrix": [
        1.0,
        0.0,
        0.0,
        0.0,
        0.0,
        2.220446049250313e-16,
        1.0,
        0.0,
        0.0,
        -1.0,
        2.220446049250313e-16,
        0.0,
        0.0,
        0.0,
        0.0,
        1.0
      ],
      "name": "Object_4"
    },
    {
      "name": "Object_5"
    },
    {
      "children": [
        7
      ],
      "matrix": [
        -67.68614107051167,
        -36.71332484193409,
        -63.80216736251655,
        0.0,
        -26.71541992733425,
        93.01683489230447,
        -25.18242968269669,
        0.0,
        68.59206388580385,
        2.0536244081670257e-06,
        -72.76762498533914,
        0.0,
        89.6260986328125,
        67.51995849609375,
        83.30760955810547,
        1.0
      ],
      "name": "Camera"
    },
    {
      "name": "Object_7"
    },
    {
      "children": [
        9
      ],
      "matrix": [
        130.91540143140975,
        0.0,
        15.983162063633744,
        0.0,
        15.98316206363373,
        -5.7649844602991735e-06,
        -130.9154014314096,
        0.0,
        6.986462287577411e-07,
        131.88746643066395,
        -5.72249414907839e-06,
        0.0,
        0.0,
        18.680030822753906,
        0.0,
        1.0
      ],
      "name": "Oeuf"
    },
    {
      "mesh": 0,
      "name": "Oeuf_Oeuf Beige_0"
    },
    {
      "children": [
        11
      ],
      "matrix": [
        -29.08647719990347,
        -5.518906457566863,
        -95.51711910171437,
        0.0,
        56.63930913109449,
        79.46723428563203,
        -21.83912397841966,
        0.0,
        77.11008775993375,
        -60.45246356562044,
        -19.98834696773717,
        0.0,
        -77.48985290527344,
        93.11676025390625,
        107.02262115478516,
        1.0
      ],
      "name": "Light.001"
    },
    {
      "children": [
        12
      ],
      "matrix": [
        1.0,
        0.0,
        0.0,
        0.0,
        0.0,
        2.220446049250313e-16,
        1.0,
        0.0,
        0.0,
        -1.0,
        2.220446049250313e-16,
        0.0,
        0.0,
        0.0,
        0.0,
        1.0
      ],
      "name": "Object_11"
    },
    {
      "name": "Object_12"
    },
    {
      "children": [
        14
      ],
      "matrix": [
        -29.08647719990347,
        -5.518906457566863,
        -95.51711910171437,
        0.0,
        56.63930913109449,
        79.46723428563203,
        -21.83912397841966,
        0.0,
        77.11008775993375,
        -60.45246356562044,
        -19.98834696773717,
        0.0,
        -175.83961486816406,
        93.11676025390625,
        -134.6844482421875,
        1.0
      ],
      "name": "Light.002"
    },
    {
      "children": [
        15
      ],
      "matrix": [
        1.0,
        0.0,
        0.0,
        0.0,
        0.0,
        2.220446049250313e-16,
        1.0,
        0.0,
        0.0,
        -1.0,
        2.220446049250313e-16,
        0.0,
        0.0,
        0.0,
        0.0,
        1.0
      ],
      "name": "Object_14"
    },
    {
      "name": "Object_15"
    }
  ],
  "scene": 0,
  "scenes": [
    {
      "name": "Sketchfab_Scene",
      "nodes": [
        0
      ]
    }
  ]
}
