# Blender 4.0.2
# www.blender.org
mtllib carpenterWorkbench.mtl
o Table
v 1.337435 3.160581 -3.490077
v 1.337435 2.860694 -3.490077
v 1.337435 3.160581 3.834780
v 1.337435 2.860694 3.834780
v -2.273869 3.160581 -3.490077
v -2.273869 2.860694 -3.490077
v -2.273869 3.160581 3.834780
v -2.273869 2.860694 3.834780
v -2.642174 2.860694 -3.858382
v -2.642174 2.860694 4.203084
v 1.705740 2.860694 -3.858382
v 1.705740 3.160581 4.203084
v -2.642174 3.160581 4.203084
v 1.705740 3.160581 -3.858382
v 1.705740 2.860694 4.203084
v -2.642174 3.160581 -3.858382
v -2.273869 3.271262 3.834780
v -2.289857 3.309862 -3.506065
v -2.273869 3.271262 -3.490077
v -2.273869 2.750013 3.834780
v 1.353423 2.711414 3.850768
v 1.337435 2.750013 3.834780
v -2.328457 3.325850 -3.544664
v 1.392023 2.695425 3.889367
v -2.587586 2.695425 4.148497
v 1.689752 2.711414 4.187096
v 1.651152 2.695425 4.148497
v 1.705740 2.750013 4.203084
v -2.642174 3.271262 -3.858382
v -2.587586 3.325850 -3.803794
v -2.626186 3.309862 -3.842393
v -2.587586 3.325850 4.148497
v -2.642174 3.271262 4.203084
v -2.626186 3.309862 4.187096
v 1.705740 3.271262 -3.858382
v 1.651152 3.325850 -3.803794
v 1.689752 3.309862 -3.842393
v 1.651152 3.325850 4.148497
v 1.705740 3.271262 4.203084
v 1.689752 3.309862 4.187096
v -2.328457 3.325850 3.889367
v -2.289857 3.309862 3.850768
v 1.392023 3.325850 -3.544664
v 1.337435 3.271262 -3.490077
v 1.353423 3.309862 -3.506065
v 1.337435 3.271262 3.834780
v 1.392023 3.325850 3.889367
v 1.353423 3.309862 3.850768
v -2.642174 2.750013 4.203084
v -2.626186 2.711414 4.187096
v 1.705740 2.750013 -3.858382
v 1.651152 2.695425 -3.803794
v 1.689752 2.711414 -3.842393
v -2.587586 2.695425 -3.803794
v -2.642174 2.750013 -3.858382
v -2.626186 2.711414 -3.842393
v -2.328457 2.695425 3.889367
v -2.289857 2.711414 3.850768
v 1.392023 2.695425 -3.544664
v 1.337435 2.750013 -3.490077
v 1.353423 2.711414 -3.506065
v -2.273869 2.750013 -3.490077
v -2.328457 2.695425 -3.544664
v -2.289857 2.711414 -3.506065
v 1.342800 0.101594 3.768314
v 1.342800 3.236498 3.768314
v 1.342800 0.101594 3.399671
v 1.342800 3.236498 3.399671
v 1.683015 0.101594 3.768314
v 1.683015 3.236498 3.768314
v 1.683015 0.101594 3.399671
v 1.683015 3.236498 3.399671
v 1.342800 0.648244 3.768314
v 1.342800 0.648244 3.399671
v 1.683015 0.648244 3.399671
v 1.683015 0.648244 3.768314
v 1.342800 0.774460 3.768314
v 1.342800 0.774460 3.399671
v 1.683015 0.774460 3.399671
v 1.683015 0.774460 3.768314
v -2.279234 0.101594 -3.423606
v -2.279234 0.101594 3.768314
v -2.279234 3.236498 3.768314
v -2.279234 0.101594 3.399671
v -2.279234 3.236498 3.399671
v -2.619450 0.101594 3.768314
v -2.619450 3.236498 3.768314
v -2.619450 0.101594 3.399671
v -2.619450 3.236498 3.399671
v -2.279234 0.648244 3.768314
v -2.279234 0.648244 3.399671
v -2.619450 0.648244 3.399671
v -2.619450 0.648244 3.768314
v -2.279234 0.774460 3.768314
v -2.279234 0.774460 3.399671
v -2.619450 0.774460 3.399671
v -2.619450 0.774460 3.768314
v 1.342800 0.101594 -3.423612
v 1.342800 3.236498 -3.423612
v 1.342800 0.101594 -3.054969
v 1.342800 3.236498 -3.054969
v 1.683015 0.101594 -3.423612
v 1.683015 3.236498 -3.423612
v 1.683015 0.101594 -3.054969
v 1.683015 3.236498 -3.054969
v 1.342800 0.648244 -3.423612
v 1.342800 0.648244 -3.054969
v 1.683015 0.648244 -3.054969
v 1.683015 0.648244 -3.423612
v 1.342800 0.774460 -3.423612
v 1.342800 0.774460 -3.054969
v 1.683015 0.774460 -3.054969
v 1.683015 0.774460 -3.423612
v -2.279234 3.236498 -3.423612
v -2.279234 0.101594 -3.054969
v -2.279234 3.236498 -3.054969
v -2.619450 0.101594 -3.423606
v -2.619450 3.236498 -3.423612
v -2.619450 0.101594 -3.054969
v -2.619450 3.236498 -3.054969
v -2.279234 0.648244 -3.423612
v -2.279234 0.648244 -3.054969
v -2.619450 0.648244 -3.054969
v -2.619450 0.648244 -3.423612
v -2.279234 0.774460 -3.423612
v -2.279234 0.774460 -3.054969
v -2.619450 0.774460 -3.054969
v -2.619450 0.774460 -3.423612
vn -0.0000 1.0000 -0.0000
vn -0.0000 -0.0000 -1.0000
vn 1.0000 -0.0000 -0.0000
vn -0.0000 -1.0000 -0.0000
vn -1.0000 -0.0000 -0.0000
vn -0.0000 -0.0000 1.0000
vn -0.0000 -0.3827 -0.9239
vn 0.9239 0.3827 -0.0000
vn -0.0000 -0.9239 0.3827
vn -0.3827 0.9239 -0.0000
vn -0.9239 0.3827 -0.0000
vn -0.0000 0.9239 -0.3827
vn -0.0000 0.3827 -0.9239
vn -0.0000 0.9239 0.3827
vn -0.0000 0.3827 0.9239
vn 0.3827 0.9239 -0.0000
vn -0.0000 -0.3827 0.9239
vn 0.3827 -0.9239 -0.0000
vn 0.9239 -0.3827 -0.0000
vn -0.3827 -0.9239 -0.0000
vn -0.9239 -0.3827 -0.0000
vn -0.0000 -0.9239 -0.3827
vn 0.6683 -0.4159 -0.6168
vt 0.646177 0.511422
vt 0.853823 0.511422
vt 0.853823 0.738578
vt 0.646177 0.738578
vt 0.375000 0.750000
vt 0.375000 1.000000
vt 0.625000 1.000000
vt 0.625000 0.750000
vt 0.375000 0.000000
vt 0.375000 0.250000
vt 0.625000 0.250000
vt 0.625000 0.000000
vt 0.146177 0.511422
vt 0.353823 0.511422
vt 0.353823 0.738578
vt 0.146177 0.738578
vt 0.375000 0.500000
vt 0.625000 0.500000
vt 0.643038 0.509729
vt 0.628139 0.501693
vt 0.628139 0.748307
vt 0.643038 0.740271
vt 0.146177 0.738578
vt 0.643038 0.740271
vt 0.628139 0.748307
vt 0.871861 0.748307
vt 0.856962 0.740271
vt 0.356962 0.509729
vt 0.371861 0.501693
vt 0.128139 0.501693
vt 0.143038 0.509729
vt 0.143038 0.509729
vt 0.128139 0.501693
vt 0.128139 0.748307
vt 0.143038 0.740271
vt 0.646177 0.738578
vt 0.143038 0.740271
vt 0.371861 0.748307
vt 0.356962 0.740271
vt 0.856962 0.509729
vt 0.871861 0.501693
vt 0.628139 0.501693
vt 0.643038 0.509729
vt 0.856962 0.740271
vt 0.871861 0.501693
vt 0.856962 0.509729
vt 0.625919 0.750000
vt 0.874081 0.750000
vt 0.356962 0.740271
vt 0.371861 0.748307
vt 0.371861 0.501693
vt 0.125000 0.500496
vt 0.125000 0.749504
vt 0.375000 0.249504
vt 0.375000 0.000496
vt 0.374081 0.500000
vt 0.125919 0.500000
vt 0.375000 0.499081
vt 0.375000 0.250919
vt 0.125919 0.750000
vt 0.374081 0.750000
vt 0.375000 0.999081
vt 0.375000 0.750919
vt 0.375000 0.749504
vt 0.375000 0.500496
vt 0.625000 0.750919
vt 0.625000 0.999081
vt 0.625000 0.500496
vt 0.625000 0.749504
vt 0.875000 0.749504
vt 0.875000 0.500496
vt 0.625000 0.000496
vt 0.625000 0.249504
vt 0.874081 0.500000
vt 0.625919 0.500000
vt 0.625000 0.250919
vt 0.625000 0.499081
vt 0.419548 0.000000
vt 0.419548 0.250000
vt 0.419548 0.500000
vt 0.419548 0.750000
vt 0.419548 1.000000
vt 0.125000 0.500000
vt 0.125000 0.750000
vt 0.875000 0.500000
vt 0.875000 0.750000
vt 0.409483 0.750000
vt 0.409483 1.000000
vt 0.409483 0.500000
vt 0.409483 0.250000
vt 0.409483 0.000000
vt 0.000000 0.000000
s 0
usemtl DarkWood
f 1/1/1 5/2/1 7/3/1 3/4/1
f 15/5/2 10/6/2 13/7/2 12/8/2
f 10/9/3 9/10/3 16/11/3 13/12/3
f 6/13/4 2/14/4 4/15/4 8/16/4
f 11/17/5 15/5/5 12/8/5 14/18/5
f 9/10/6 11/17/6 14/18/6 16/11/6
f 11/17/3 35/17/3 39/5/3 15/5/3
f 59/19/4 52/20/4 27/21/4 24/22/4
f 8/16/2 17/23/2 46/15/2 4/15/2
f 16/11/5 55/11/5 49/12/5 13/12/5
f 24/24/4 27/25/4 25/26/4 57/27/4
f 7/3/3 20/3/3 62/2/3 5/2/3
f 43/28/1 36/29/1 30/30/1 23/31/1
f 23/32/1 30/33/1 32/34/1 41/35/1
f 9/10/2 29/10/2 35/17/2 11/17/2
f 4/15/5 46/15/5 44/14/5 2/14/5
f 12/8/3 28/8/3 51/18/3 14/18/3
f 1/1/5 60/1/5 22/4/5 3/4/5
f 15/5/6 39/5/6 33/6/6 10/6/6
f 14/18/2 51/18/2 55/11/2 16/11/2
f 22/36/7 21/4/7 58/3/7 20/3/7
f 19/13/8 18/13/8 42/16/8 17/16/8
f 10/9/5 33/9/5 29/10/5 9/10/5
f 41/37/1 32/34/1 38/38/1 47/39/1
f 63/40/4 54/41/4 52/42/4 59/43/4
f 57/44/4 25/26/4 54/45/4 63/46/4
f 5/2/6 62/2/6 60/1/6 1/1/6
f 27/25/9 26/47/9 50/48/9 25/26/9
f 47/49/1 38/50/1 36/51/1 43/28/1
f 30/33/10 31/52/10 34/53/10 32/34/10
f 31/54/11 29/10/11 33/9/11 34/55/11
f 36/29/12 37/56/12 31/57/12 30/30/12
f 37/58/13 35/17/13 29/10/13 31/59/13
f 32/34/14 34/60/14 40/61/14 38/38/14
f 34/62/15 33/6/15 39/5/15 40/63/15
f 38/50/16 40/64/16 37/65/16 36/51/16
f 40/64/8 39/5/8 35/17/8 37/65/8
f 2/14/6 44/14/6 19/13/6 6/13/6
f 18/13/16 23/32/16 41/35/16 42/16/16
f 44/14/15 45/14/15 18/13/15 19/13/15
f 45/14/14 43/28/14 23/31/14 18/13/14
f 17/23/13 42/16/13 48/15/13 46/15/13
f 42/16/12 41/37/12 47/39/12 48/15/12
f 46/15/11 48/15/11 45/14/11 44/14/11
f 48/15/10 47/49/10 43/28/10 45/14/10
f 6/13/3 19/13/3 17/16/3 8/16/3
f 26/66/17 28/8/17 49/7/17 50/67/17
f 52/20/18 53/68/18 26/69/18 27/21/18
f 53/68/19 51/18/19 28/8/19 26/69/19
f 25/26/20 50/70/20 56/71/20 54/45/20
f 50/72/21 49/12/21 55/11/21 56/73/21
f 54/41/22 56/74/22 53/75/22 52/42/22
f 56/76/7 55/11/7 51/18/7 53/77/7
f 13/7/6 49/7/6 28/8/6 12/8/6
f 21/4/22 24/24/22 57/27/22 58/3/22
f 60/1/21 61/1/21 21/4/21 22/4/21
f 61/1/20 59/19/20 24/22/20 21/4/20
f 20/3/19 58/3/19 64/2/19 62/2/19
f 58/3/18 57/44/18 63/46/18 64/2/18
f 62/2/17 64/2/17 61/1/17 60/1/17
f 64/2/9 63/40/9 59/43/9 61/1/9
f 3/4/2 22/36/2 20/3/2 7/3/2
f 77/78/5 66/12/5 68/11/5 78/79/5
f 78/79/2 68/11/2 72/18/2 79/80/2
f 79/80/3 72/18/3 70/8/3 80/81/3
f 80/81/6 70/8/6 66/7/6 77/82/6
f 67/83/4 71/17/4 69/5/4 65/84/4
f 72/18/1 68/85/1 66/86/1 70/8/1
f 69/5/6 76/87/6 73/88/6 65/6/6
f 71/17/3 75/89/3 76/87/3 69/5/3
f 67/10/2 74/90/2 75/89/2 71/17/2
f 65/9/5 73/91/5 74/90/5 67/10/5
f 76/87/6 80/81/6 77/82/6 73/88/6
f 75/89/3 79/80/3 80/81/3 76/87/3
f 94/78/3 95/79/3 85/11/3 83/12/3
f 95/79/2 96/80/2 89/18/2 85/11/2
f 96/80/5 97/81/5 87/8/5 89/18/5
f 97/81/6 94/82/6 83/7/6 87/8/6
f 84/83/4 82/84/4 86/5/4 88/17/4
f 89/18/1 87/8/1 83/86/1 85/85/1
f 86/5/6 82/6/6 90/88/6 93/87/6
f 88/17/5 86/5/5 93/87/5 92/89/5
f 84/10/2 88/17/2 92/89/2 91/90/2
f 82/9/3 84/10/3 91/90/3 90/91/3
f 93/87/6 90/88/6 94/82/6 97/81/6
f 92/89/5 93/87/5 97/81/5 96/80/5
f 107/90/6 111/79/6 126/92/6 122/90/6
f 119/17/4 117/5/4 81/92/4 115/10/4
f 111/79/1 110/82/1 125/78/1 126/92/1
f 96/80/1 95/92/1 126/79/1 127/80/1
f 124/87/2 121/91/2 81/92/2 117/5/2
f 110/78/5 111/79/5 101/11/5 99/12/5
f 111/79/6 112/80/6 105/18/6 101/11/6
f 112/80/3 113/81/3 103/8/3 105/18/3
f 113/81/2 110/82/2 99/7/2 103/8/2
f 100/83/4 98/84/4 102/5/4 104/17/4
f 105/18/1 103/8/1 99/86/1 101/85/1
f 102/5/2 98/6/2 106/88/2 109/87/2
f 104/17/3 102/5/3 109/87/3 108/89/3
f 100/10/6 104/17/6 108/89/6 107/90/6
f 98/9/5 100/10/5 107/90/5 106/91/5
f 109/87/2 106/88/2 110/82/2 113/81/2
f 108/89/3 109/87/3 113/81/3 112/80/3
f 75/89/3 108/89/3 112/80/3 79/80/3
f 91/90/3 122/90/3 126/92/3 95/92/3
f 77/82/6 94/82/6 90/88/6 73/91/6
f 92/89/4 123/89/4 122/90/4 91/90/4
f 74/92/2 91/92/2 95/92/2 78/79/2
f 125/78/3 114/12/3 116/11/3 126/79/3
f 126/79/6 116/11/6 120/18/6 127/80/6
f 127/80/5 120/18/5 118/8/5 128/81/5
f 128/81/2 118/8/2 114/7/2 125/82/2
f 121/91/23 122/90/23 115/83/23 119/17/23 117/5/23 124/87/23
f 120/18/1 116/85/1 114/86/1 118/8/1
f 79/80/1 112/80/1 111/79/1 78/79/1
f 119/17/5 123/89/5 124/87/5 117/5/5
f 115/10/6 122/90/6 123/89/6 119/17/6
f 74/92/5 78/79/5 111/79/5 107/92/5
f 124/87/2 128/81/2 125/82/2 121/88/2
f 123/89/5 127/80/5 128/81/5 124/87/5
f 110/82/2 106/91/2 121/88/2 125/82/2
f 75/89/4 74/92/4 107/90/4 108/89/4
f 122/90/3 115/10/3 81/92/3 121/91/3
f 107/90/4 122/90/4 121/91/4 106/91/4
f 78/79/1 95/92/1 94/78/1 77/82/1
f 92/89/5 96/80/5 127/80/5 123/89/5
f 74/92/4 73/91/4 90/91/4 91/92/4
o TableFloor
v 1.403891 0.689282 1.111422
v 1.403891 0.672202 1.083785
v 1.403891 0.672202 0.770416
v 1.403891 0.689282 0.742779
v 1.403891 0.750205 1.083785
v 1.403891 0.733125 1.111422
v -2.340325 0.672202 1.083785
v -2.340325 0.689282 1.111422
v -2.340325 0.689282 0.742779
v -2.340325 0.672202 0.770416
v -2.340325 0.733125 1.111422
v -2.340325 0.750205 1.083785
v -2.340325 0.750205 0.770416
v -2.340325 0.733125 0.742779
v 1.403891 0.733125 0.742779
v 1.403891 0.750205 0.770416
v 1.403891 0.689282 3.323279
v 1.403891 0.672202 3.295642
v 1.403891 0.672202 2.982273
v 1.403891 0.689282 2.954636
v 1.403891 0.750205 3.295642
v 1.403891 0.733125 3.323279
v 1.403891 0.733125 2.954636
v 1.403891 0.750205 2.982273
v -2.340325 0.672202 3.295642
v -2.340325 0.689282 3.323279
v -2.340325 0.689282 2.954636
v -2.340325 0.672202 2.982273
v -2.340325 0.733125 3.323279
v -2.340325 0.750205 3.295642
v -2.340325 0.750205 2.982273
v -2.340325 0.733125 2.954636
v 1.403891 0.689282 2.880908
v 1.403891 0.672202 2.853271
v 1.403891 0.672202 2.539902
v 1.403891 0.689282 2.512265
v 1.403891 0.750205 2.853271
v 1.403891 0.733125 2.880908
v -2.340325 0.672202 2.853271
v -2.340325 0.689282 2.880908
v -2.340325 0.689282 2.512265
v -2.340325 0.672202 2.539902
v -2.340325 0.733125 2.880908
v -2.340325 0.750205 2.853271
v -2.340325 0.750205 2.539902
v -2.340325 0.733125 2.512265
v 1.403891 0.733125 2.512265
v 1.403891 0.750205 2.539902
v 1.403891 0.689282 2.438536
v 1.403891 0.672202 2.410899
v 1.403891 0.672202 2.097531
v 1.403891 0.689282 2.069894
v 1.403891 0.750205 2.410899
v 1.403891 0.733125 2.438536
v -2.340325 0.672202 2.410899
v -2.340325 0.689282 2.438536
v -2.340325 0.689282 2.069894
v -2.340325 0.672202 2.097531
v -2.340325 0.733125 2.438536
v -2.340325 0.750205 2.410899
v -2.340325 0.750205 2.097531
v -2.340325 0.733125 2.069894
v 1.403891 0.733125 2.069894
v 1.403891 0.750205 2.097531
v 1.403891 0.689282 1.996165
v 1.403891 0.672202 1.968528
v 1.403891 0.672202 1.655159
v 1.403891 0.689282 1.627522
v 1.403891 0.750205 1.968528
v 1.403891 0.733125 1.996165
v -2.340325 0.672202 1.968528
v -2.340325 0.689282 1.996165
v -2.340325 0.689282 1.627522
v -2.340325 0.672202 1.655159
v -2.340325 0.733125 1.996165
v -2.340325 0.750205 1.968528
v -2.340325 0.750205 1.655159
v -2.340325 0.733125 1.627522
v 1.403891 0.733125 1.627522
v 1.403891 0.750205 1.655159
v 1.403891 0.689282 1.553794
v 1.403891 0.672202 1.526157
v 1.403891 0.672202 1.212788
v 1.403891 0.689282 1.185151
v 1.403891 0.750205 1.526157
v 1.403891 0.733125 1.553794
v -2.340325 0.672202 1.526157
v -2.340325 0.689282 1.553794
v -2.340325 0.689282 1.185151
v -2.340325 0.672202 1.212788
v -2.340325 0.733125 1.553794
v -2.340325 0.750205 1.526157
v -2.340325 0.750205 1.212788
v -2.340325 0.733125 1.185151
v 1.403891 0.733125 1.185151
v 1.403891 0.750205 1.212788
v 1.403891 0.689282 -0.400467
v 1.403891 0.672202 -0.428104
v 1.403891 0.672202 -0.741472
v 1.403891 0.689282 -0.769110
v 1.403891 0.750205 -0.428104
v 1.403891 0.733125 -0.400467
v -2.340325 0.672202 -0.428104
v -2.340325 0.689282 -0.400467
v -2.340325 0.689282 -0.769110
v -2.340325 0.672202 -0.741472
v -2.340325 0.733125 -0.400467
v -2.340325 0.750205 -0.428104
v -2.340325 0.750205 -0.741472
v -2.340325 0.733125 -0.769110
v 1.403891 0.733125 -0.769110
v 1.403891 0.750205 -0.741472
v 1.403891 0.689282 -0.842839
v 1.403891 0.672202 -0.870475
v 1.403891 0.672202 -1.183845
v 1.403891 0.689282 -1.211481
v 1.403891 0.750205 -0.870475
v 1.403891 0.733125 -0.842839
v -2.340325 0.672202 -0.870475
v -2.340325 0.689282 -0.842839
v -2.340325 0.689282 -1.211481
v -2.340325 0.672202 -1.183845
v -2.340325 0.733125 -0.842839
v -2.340325 0.750205 -0.870475
v -2.340325 0.750205 -1.183845
v -2.340325 0.733125 -1.211481
v 1.403891 0.733125 -1.211481
v 1.403891 0.750205 -1.183845
v 1.403891 0.689282 -1.285210
v 1.403891 0.672202 -1.312847
v 1.403891 0.672202 -1.626215
v 1.403891 0.689282 -1.653852
v 1.403891 0.750205 -1.312847
v 1.403891 0.733125 -1.285210
v -2.340325 0.672202 -1.312847
v -2.340325 0.689282 -1.285210
v -2.340325 0.689282 -1.653852
v -2.340325 0.672202 -1.626215
v -2.340325 0.733125 -1.285210
v -2.340325 0.750205 -1.312847
v -2.340325 0.750205 -1.626215
v -2.340325 0.733125 -1.653852
v 1.403891 0.733125 -1.653852
v 1.403891 0.750205 -1.626215
v 1.403891 0.689282 -1.727581
v 1.403891 0.672202 -1.755218
v 1.403891 0.672202 -2.068587
v 1.403891 0.689282 -2.096224
v 1.403891 0.750205 -1.755218
v 1.403891 0.733125 -1.727581
v -2.340325 0.672202 -1.755218
v -2.340325 0.689282 -1.727581
v -2.340325 0.689282 -2.096224
v -2.340325 0.672202 -2.068587
v -2.340325 0.733125 -1.727581
v -2.340325 0.750205 -1.755218
v -2.340325 0.750205 -2.068587
v -2.340325 0.733125 -2.096224
v 1.403891 0.733125 -2.096224
v 1.403891 0.750205 -2.068587
v 1.403891 0.689282 -2.169952
v 1.403891 0.672202 -2.197589
v 1.403891 0.672202 -2.510958
v 1.403891 0.689282 -2.538595
v 1.403891 0.750205 -2.197589
v 1.403891 0.733125 -2.169952
v -2.340325 0.672202 -2.197589
v -2.340325 0.689282 -2.169952
v -2.340325 0.689282 -2.538595
v -2.340325 0.672202 -2.510958
v -2.340325 0.733125 -2.169952
v -2.340325 0.750205 -2.197589
v -2.340325 0.750205 -2.510958
v -2.340325 0.733125 -2.538595
v 1.403891 0.733125 -2.538595
v 1.403891 0.750205 -2.510958
v 1.403891 0.689282 -2.612324
v 1.403891 0.672202 -2.639961
v 1.403891 0.672202 -2.953330
v 1.403891 0.689282 -2.980967
v 1.403891 0.750205 -2.639961
v 1.403891 0.733125 -2.612324
v -2.340325 0.672202 -2.639961
v -2.340325 0.689282 -2.612324
v -2.340325 0.689282 -2.980967
v -2.340325 0.672202 -2.953330
v -2.340325 0.733125 -2.612324
v -2.340325 0.750205 -2.639961
v -2.340325 0.750205 -2.953330
v -2.340325 0.733125 -2.980967
v 1.403891 0.733125 -2.980967
v 1.403891 0.750205 -2.953330
vn -0.0000 -0.0000 1.0000
vn 1.0000 -0.0000 -0.0000
vn -0.0000 -0.0000 -1.0000
vn -1.0000 -0.0000 -0.0000
vn -0.0000 1.0000 -0.0000
vn -0.0000 -1.0000 -0.0000
vn -0.0000 -0.8507 0.5257
vn -0.0000 0.8507 0.5257
vn -0.0000 0.8507 -0.5257
vn -0.0000 -0.8507 -0.5257
vt 0.417344 0.218966
vt 0.417344 0.218966
vt 0.411687 0.781034
vt 0.411687 0.781034
vt 0.417344 0.250000
vt 0.419548 0.231258
vt 0.419548 0.018742
vt 0.417344 0.218966
vt 0.409483 0.943773
vt 0.409483 0.306227
vt 0.411687 0.250000
vt 0.417344 0.250000
vt 0.417344 0.250000
vt 0.419548 0.231258
vt 0.419548 0.018742
vt 0.417344 0.218966
vt 0.409483 0.943773
vt 0.409483 0.306227
vt 0.411687 0.250000
vt 0.417344 0.218966
vt 0.411687 0.781034
vt 0.409483 0.306227
vt 0.409483 0.943773
vt 0.409483 0.943773
vt 0.409483 0.306227
vt 0.419548 0.231258
vt 0.419548 0.018742
vt 0.419548 0.231258
vt 0.419548 0.018742
s 0
usemtl Wood
f 134/93/24 139/94/24 136/95/24 129/96/24
f 143/97/25 144/98/25 133/99/25 134/100/25 129/96/25 130/101/25 131/102/25 132/103/25
f 132/103/26 137/103/26 142/104/26 143/105/26
f 151/97/25 152/106/25 149/107/25 150/108/25 145/96/25 146/109/25 147/110/25 148/111/25
f 141/98/27 142/105/27 137/103/27 138/102/27 135/101/27 136/96/27 139/112/27 140/99/27
f 144/98/28 141/98/28 140/99/28 133/99/28
f 159/106/27 160/97/27 155/103/27 156/110/27 153/109/27 154/113/27 157/112/27 158/107/27
f 152/106/28 159/106/28 158/107/28 149/107/28
f 147/110/29 146/109/29 153/109/29 156/110/29
f 148/103/26 155/111/26 160/97/26 151/97/26
f 150/112/24 157/108/24 154/96/24 145/113/24
f 163/110/29 162/109/29 167/109/29 170/110/29
f 166/112/24 171/108/24 168/96/24 161/113/24
f 175/97/25 176/106/25 165/107/25 166/108/25 161/96/25 162/109/25 163/110/25 164/111/25
f 164/103/26 169/111/26 174/97/26 175/97/26
f 179/110/29 178/109/29 183/109/29 186/110/29
f 173/106/27 174/97/27 169/103/27 170/110/27 167/109/27 168/113/27 171/112/27 172/107/27
f 176/106/28 173/106/28 172/107/28 165/107/28
f 182/112/24 187/108/24 184/96/24 177/113/24
f 191/97/25 192/106/25 181/107/25 182/108/25 177/96/25 178/109/25 179/110/25 180/111/25
f 180/103/26 185/111/26 190/97/26 191/97/26
f 195/110/29 194/109/29 199/109/29 202/110/29
f 189/106/27 190/97/27 185/103/27 186/110/27 183/109/27 184/113/27 187/112/27 188/107/27
f 192/106/28 189/106/28 188/107/28 181/107/28
f 198/112/24 203/108/24 200/96/24 193/113/24
f 207/97/25 208/106/25 197/107/25 198/108/25 193/96/25 194/109/25 195/110/25 196/111/25
f 196/103/26 201/111/26 206/97/26 207/97/26
f 211/110/29 210/109/29 215/109/29 218/110/29
f 205/106/27 206/97/27 201/103/27 202/110/27 199/109/27 200/113/27 203/112/27 204/107/27
f 208/106/28 205/106/28 204/107/28 197/107/28
f 214/112/24 219/108/24 216/96/24 209/113/24
f 223/97/25 224/106/25 213/107/25 214/108/25 209/96/25 210/109/25 211/110/25 212/111/25
f 212/103/26 217/111/26 222/97/26 223/97/26
f 227/102/29 226/101/29 231/101/29 234/102/29
f 221/106/27 222/97/27 217/103/27 218/110/27 215/109/27 216/113/27 219/112/27 220/107/27
f 224/106/28 221/106/28 220/107/28 213/107/28
f 230/112/24 235/108/24 232/96/24 225/113/24
f 239/97/25 240/98/25 229/99/25 230/108/25 225/96/25 226/101/25 227/102/25 228/111/25
f 228/103/26 233/111/26 238/97/26 239/97/26
f 243/114/29 242/115/29 247/116/29 250/117/29
f 237/98/27 238/97/27 233/103/27 234/102/27 231/101/27 232/113/27 235/112/27 236/99/27
f 240/98/28 237/98/28 236/99/28 229/99/28
f 246/112/24 251/108/24 248/96/24 241/113/24
f 255/97/25 256/118/25 245/119/25 246/108/25 241/96/25 242/116/25 243/117/25 244/111/25
f 244/103/26 249/111/26 254/97/26 255/97/26
f 259/114/29 258/115/29 263/116/29 266/117/29
f 253/120/27 254/97/27 249/103/27 250/114/27 247/115/27 248/113/27 251/112/27 252/121/27
f 256/120/28 253/118/28 252/119/28 245/121/28
f 262/112/24 267/108/24 264/96/24 257/113/24
f 271/97/25 272/118/25 261/119/25 262/108/25 257/96/25 258/116/25 259/117/25 260/111/25
f 260/103/26 265/111/26 270/97/26 271/97/26
f 275/114/29 274/115/29 279/116/29 282/117/29
f 269/120/27 270/97/27 265/103/27 266/114/27 263/115/27 264/113/27 267/112/27 268/121/27
f 272/120/28 269/118/28 268/119/28 261/121/28
f 278/112/24 283/108/24 280/96/24 273/113/24
f 287/97/25 288/118/25 277/119/25 278/108/25 273/96/25 274/116/25 275/117/25 276/111/25
f 276/103/26 281/111/26 286/97/26 287/97/26
f 291/114/29 290/115/29 295/116/29 298/117/29
f 285/120/27 286/97/27 281/103/27 282/114/27 279/115/27 280/113/27 283/112/27 284/121/27
f 288/120/28 285/118/28 284/119/28 277/121/28
f 294/112/24 299/108/24 296/96/24 289/113/24
f 303/97/25 304/118/25 293/119/25 294/108/25 289/96/25 290/116/25 291/117/25 292/111/25
f 292/103/26 297/111/26 302/97/26 303/97/26
f 307/114/29 306/115/29 311/116/29 314/117/29
f 301/120/27 302/97/27 297/103/27 298/114/27 295/115/27 296/113/27 299/112/27 300/121/27
f 304/120/28 301/118/28 300/119/28 293/121/28
f 310/112/24 315/108/24 312/96/24 305/113/24
f 319/97/25 320/118/25 309/119/25 310/108/25 305/96/25 306/116/25 307/117/25 308/111/25
f 308/103/26 313/111/26 318/97/26 319/97/26
f 317/120/27 318/97/27 313/103/27 314/114/27 311/115/27 312/113/27 315/112/27 316/121/27
f 320/120/28 317/118/28 316/119/28 309/121/28
f 135/101/30 130/101/30 129/96/30 136/95/30
f 133/99/31 140/99/31 139/94/31 134/93/31
f 141/98/32 144/98/32 143/105/32 142/104/32
f 131/102/33 138/102/33 137/103/33 132/103/33
f 159/106/32 152/106/32 151/97/32 160/97/32
f 149/107/31 158/107/31 157/108/31 150/112/31
f 153/109/30 146/109/30 145/113/30 154/96/30
f 147/110/33 156/110/33 155/111/33 148/103/33
f 167/109/30 162/109/30 161/113/30 168/96/30
f 165/107/31 172/107/31 171/108/31 166/112/31
f 173/106/32 176/106/32 175/97/32 174/97/32
f 163/110/33 170/110/33 169/111/33 164/103/33
f 183/109/30 178/109/30 177/113/30 184/96/30
f 181/107/31 188/107/31 187/108/31 182/112/31
f 189/106/32 192/106/32 191/97/32 190/97/32
f 179/110/33 186/110/33 185/111/33 180/103/33
f 199/109/30 194/109/30 193/113/30 200/96/30
f 197/107/31 204/107/31 203/108/31 198/112/31
f 205/106/32 208/106/32 207/97/32 206/97/32
f 195/110/33 202/110/33 201/111/33 196/103/33
f 215/109/30 210/109/30 209/113/30 216/96/30
f 213/107/31 220/107/31 219/108/31 214/112/31
f 221/106/32 224/106/32 223/97/32 222/97/32
f 211/110/33 218/110/33 217/111/33 212/103/33
f 231/101/30 226/101/30 225/113/30 232/96/30
f 229/99/31 236/99/31 235/108/31 230/112/31
f 237/98/32 240/98/32 239/97/32 238/97/32
f 227/102/33 234/102/33 233/111/33 228/103/33
f 247/116/30 242/115/30 241/113/30 248/96/30
f 245/121/31 252/119/31 251/108/31 246/112/31
f 253/118/32 256/120/32 255/97/32 254/97/32
f 243/114/33 250/117/33 249/111/33 244/103/33
f 263/116/30 258/115/30 257/113/30 264/96/30
f 261/121/31 268/119/31 267/108/31 262/112/31
f 269/118/32 272/120/32 271/97/32 270/97/32
f 259/114/33 266/117/33 265/111/33 260/103/33
f 279/116/30 274/115/30 273/113/30 280/96/30
f 277/121/31 284/119/31 283/108/31 278/112/31
f 285/118/32 288/120/32 287/97/32 286/97/32
f 275/114/33 282/117/33 281/111/33 276/103/33
f 295/116/30 290/115/30 289/113/30 296/96/30
f 293/121/31 300/119/31 299/108/31 294/112/31
f 301/118/32 304/120/32 303/97/32 302/97/32
f 291/114/33 298/117/33 297/111/33 292/103/33
f 311/116/30 306/115/30 305/113/30 312/96/30
f 309/121/31 316/119/31 315/108/31 310/112/31
f 317/118/32 320/120/32 319/97/32 318/97/32
f 307/114/33 314/117/33 313/111/33 308/103/33
f 131/102/29 130/101/29 135/101/29 138/102/29
o Floor
v 69.867920 0.120603 -70.163788
v -70.804352 0.120603 -70.163788
v 69.867920 0.120603 70.508484
v -70.804352 0.120603 70.508484
vn -0.0000 -1.0000 -0.0000
vt 0.000000 0.000000
vt 1.000000 0.000000
vt 1.000000 1.000000
vt 0.000000 1.000000
s 0
usemtl Floor
f 321/122/34 323/125/34 324/124/34 322/123/34
