# Blender v3.0.0 OBJ File: 'milk.blend'
# www.blender.org
mtllib box milk.mtl
o box_milk_Cube.002
v -36.156158 -70.000000 35.000000
v 33.843842 -70.000000 35.000000
v -36.156158 30.000000 35.000000
v -36.156158 -70.000000 -35.000000
v 33.843842 -70.000000 -35.000000
v -36.156158 30.000000 -35.000000
v 33.843842 30.000000 -35.000000
v 33.843842 30.000000 35.000000
v -2.158329 54.000000 35.000000
v -36.156158 30.000000 35.000000
v -34.156975 30.000000 35.000000
v 31.844658 30.000000 35.000000
v -2.158329 70.000000 35.000000
v -0.153988 70.000000 35.000000
v -2.158329 54.000000 -35.000000
v -36.156158 30.000000 -35.000000
v -34.156975 30.000000 -35.000000
v 31.844658 30.000000 -35.000000
v -2.158329 70.000000 -35.000000
v -0.153988 70.000000 -35.000000
v -0.153988 54.000000 35.000000
v 33.843842 30.000000 -35.000000
v -0.153988 54.000000 -35.000000
v 33.843842 30.000000 35.000000
v 16.543079 58.737946 9.899493
v 17.125927 58.938530 9.539014
v 14.736906 60.625008 5.162470
v 14.063781 60.488152 5.357567
v 13.898000 61.217209 -0.000000
v 13.193169 61.102737 -0.000001
v 14.736914 60.625000 -5.162487
v 14.063783 60.488144 -5.357568
v 17.125927 58.938530 -9.539017
v 16.543079 58.737946 -9.899494
v 20.253609 56.118584 12.934311
v 20.701338 56.414551 12.463321
v 20.701342 56.414551 -12.463323
v 20.253611 56.118584 -12.934313
v 24.630478 53.028831 13.999998
v 24.918833 53.437317 13.490202
v 24.918833 53.437309 -13.490202
v 24.630482 53.028831 -13.999998
v 29.007347 49.939087 12.934313
v 29.136316 50.460075 12.463325
v 29.136324 50.460068 -12.463321
v 29.007347 49.939079 -12.934311
v 32.711735 47.936089 9.539015
v 32.717876 47.319717 9.899494
v 35.197174 45.569519 5.357569
v 35.100750 46.249619 5.162488
v 36.067787 44.954926 0.000001
v 35.939663 45.657410 0.000001
v 35.197174 45.569519 -5.357566
v 35.100750 46.249619 -5.162475
v 32.717876 47.319717 -9.899493
v 32.711735 47.936089 -9.539014
v 9.334458 48.526390 9.899493
v 13.044987 45.907021 12.934311
v 6.855160 50.276588 5.357566
v 5.984548 50.891182 -0.000001
v 6.855163 50.276588 -5.357569
v 9.334458 48.526390 -9.899494
v 13.044989 45.907021 -12.934313
v 17.421856 42.817268 13.999998
v 17.421860 42.817268 -13.999998
v 21.798727 39.727516 12.934313
v 21.798727 39.727516 -12.934311
v 25.509256 37.108154 9.899494
v 25.509256 37.108154 -9.899493
v 27.988554 35.357952 5.357569
v 28.859167 34.743362 0.000001
v 27.988554 35.357952 -5.357566
v 9.046373 47.505268 9.545960
v 6.655622 49.192966 5.166245
v 5.816104 49.785603 0.000020
v 6.655625 49.192959 -5.166206
v 9.046375 47.505268 -9.545919
v 27.034250 34.807133 5.166247
v 24.643499 36.494831 9.545961
v 27.873772 34.214493 0.000022
v 27.034250 34.807133 -5.166204
v 24.643499 36.494831 -9.545918
v 12.624384 44.979450 12.472392
v 12.624386 44.979450 -12.472352
v 16.844934 42.000050 13.500019
v 16.844938 42.000050 -13.499977
v 21.065489 39.020649 12.472394
v 21.065489 39.020649 -12.472350
v 9.623294 48.322495 9.545940
v 7.232542 50.010185 5.166224
v 6.393024 50.602829 -0.000001
v 7.232546 50.010185 -5.166227
v 9.623295 48.322495 -9.545941
v 13.201305 45.796669 -12.472373
v 17.421860 42.817268 -13.499998
v 21.642410 39.837868 -12.472371
v 25.220421 37.312054 -9.545939
v 13.201303 45.796669 12.472371
v 17.421856 42.817268 13.499998
v 21.642410 39.837868 12.472373
v 25.220421 37.312054 9.545940
v 27.611172 35.624355 5.166227
v 28.450691 35.031715 0.000001
v 27.611172 35.624355 -5.166224
v -2.158331 52.585285 35.000000
v -0.154079 52.585297 35.000000
v -0.154068 52.585289 -2.032471
v -2.158327 52.585289 2.032471
v -2.158331 52.585285 -35.000000
v -0.154068 52.585289 2.032471
v -0.154083 52.585297 -35.000000
v -2.158326 52.585289 -2.032470
vt 0.234375 0.343750
vt 0.000000 0.343750
vt 0.000000 0.000000
vt 0.234375 0.000000
vt 0.265625 0.718750
vt 0.265625 0.375000
vt 0.500000 0.375000
vt 0.500000 0.718750
vt 0.000000 0.375000
vt 0.234375 0.375000
vt 0.234375 0.718750
vt 0.000000 0.718750
vt 0.765625 0.250000
vt 0.531250 0.250000
vt 0.531250 0.000000
vt 0.765625 0.000000
vt 0.265625 0.000000
vt 0.500000 0.000000
vt 0.500000 0.343750
vt 0.265625 0.343750
vt 0.921875 0.500000
vt 0.859375 0.500000
vt 0.859375 0.281250
vt 0.921875 0.281250
vt 0.265625 0.968750
vt 0.265625 0.750000
vt 0.328125 0.750000
vt 0.328125 0.968750
vt 0.000000 0.750000
vt 0.000000 0.734375
vt 0.015625 0.734375
vt 0.015625 0.750000
vt 0.531250 0.546875
vt 0.531250 0.296875
vt 0.656250 0.296875
vt 0.656250 0.546875
vt 0.015625 0.968750
vt 0.000000 0.968750
vt 0.000000 0.906250
vt 0.015625 0.906250
vt 0.812500 0.718750
vt 0.703125 0.718750
vt 0.703125 0.703125
vt 0.812500 0.703125
vt 0.968750 0.703125
vt 0.968750 0.718750
vt 0.843750 0.718750
vt 0.843750 0.703125
vt 0.000000 0.812500
vt 0.015625 0.812500
vt 0.468750 0.906250
vt 0.500000 0.906250
vt 0.500000 0.937500
vt 0.468750 0.937500
vt 0.875000 0.906250
vt 0.906250 0.906250
vt 0.906250 0.937500
vt 0.875000 0.937500
vt 0.843750 0.906250
vt 0.843750 0.937500
vt 0.937500 0.906250
vt 0.937500 0.937500
vt 0.531250 0.906250
vt 0.562500 0.906250
vt 0.562500 0.937500
vt 0.531250 0.937500
vt 0.812500 0.906250
vt 0.812500 0.937500
vt 0.593750 0.906250
vt 0.593750 0.937500
vt 0.781250 0.906250
vt 0.781250 0.937500
vt 0.625000 0.906250
vt 0.625000 0.937500
vt 0.750000 0.906250
vt 0.750000 0.937500
vt 0.437500 0.906250
vt 0.437500 0.937500
vt 0.656250 0.906250
vt 0.656250 0.937500
vt 0.687500 0.906250
vt 0.687500 0.937500
vt 0.718750 0.906250
vt 0.718750 0.937500
vt 0.531250 0.578125
vt 0.531250 0.578125
vt 0.671875 0.578125
vt 0.671875 0.578125
vt 0.671875 0.875000
vt 0.671875 0.890625
vt 0.656250 0.890625
vt 0.656250 0.875000
vt 0.687500 0.875000
vt 0.687500 0.890625
vt 0.453125 0.875000
vt 0.453125 0.890625
vt 0.437500 0.890625
vt 0.437500 0.875000
vt 0.468750 0.875000
vt 0.468750 0.890625
vt 0.578125 0.890625
vt 0.578125 0.875000
vt 0.593750 0.875000
vt 0.593750 0.890625
vt 0.562500 0.890625
vt 0.562500 0.875000
vt 0.546875 0.890625
vt 0.546875 0.875000
vt 0.531250 0.890625
vt 0.531250 0.875000
vt 0.640625 0.890625
vt 0.640625 0.875000
vt 0.484375 0.875000
vt 0.484375 0.890625
vt 0.625000 0.890625
vt 0.625000 0.875000
vt 0.500000 0.875000
vt 0.500000 0.890625
vt 0.609375 0.890625
vt 0.609375 0.875000
vt 0.515625 0.875000
vt 0.515625 0.890625
vt 0.140625 0.890625
vt 0.125000 0.906250
vt 0.109375 0.906250
vt 0.093750 0.890625
vt 0.078125 0.875000
vt 0.062500 0.859375
vt 0.062500 0.843750
vt 0.078125 0.828125
vt 0.093750 0.812500
vt 0.109375 0.796875
vt 0.125000 0.796875
vt 0.140625 0.812500
vt 0.156250 0.828125
vt 0.171875 0.843750
vt 0.171875 0.859375
vt 0.156250 0.875000
vt 0.843750 0.890625
vt 0.828125 0.890625
vt 0.828125 0.875000
vt 0.843750 0.875000
vt 0.921875 0.890625
vt 0.906250 0.890625
vt 0.906250 0.875000
vt 0.921875 0.875000
vt 0.732422 0.890625
vt 0.718750 0.890625
vt 0.718750 0.875000
vt 0.732422 0.875000
vt 0.890625 0.890625
vt 0.890625 0.875000
vt 0.937500 0.890625
vt 0.937500 0.875000
vt 0.750000 0.890625
vt 0.750000 0.875000
vt 0.875000 0.890625
vt 0.875000 0.875000
vt 0.765625 0.890625
vt 0.765625 0.875000
vt 0.859375 0.890625
vt 0.859375 0.875000
vt 0.781250 0.890625
vt 0.781250 0.875000
vt 0.906250 0.968750
vt 0.890625 0.968750
vt 0.890625 0.953125
vt 0.906250 0.953125
vt 0.796875 0.968750
vt 0.781250 0.968750
vt 0.781250 0.953125
vt 0.796875 0.953125
vt 0.812500 0.968750
vt 0.812500 0.953125
vt 0.828125 0.968750
vt 0.828125 0.953125
vt 0.843750 0.968750
vt 0.843750 0.953125
vt 0.937500 0.968750
vt 0.921875 0.968750
vt 0.921875 0.953125
vt 0.937500 0.953125
vt 0.765625 0.968750
vt 0.765625 0.953125
vt 0.859375 0.968750
vt 0.859375 0.953125
vt 0.750000 0.968750
vt 0.750000 0.953125
vt 0.875000 0.968750
vt 0.875000 0.953125
vt 0.734375 0.968750
vt 0.734375 0.953125
vt 0.703125 0.968750
vt 0.687500 0.968750
vt 0.687500 0.953125
vt 0.703125 0.953125
vt 0.718750 0.968750
vt 0.718750 0.953125
vt 0.703125 0.890625
vt 0.703125 0.875000
vt 0.812500 0.890625
vt 0.812500 0.875000
vt 0.796875 0.890625
vt 0.796875 0.875000
vt 0.687500 0.890625
vt 0.687500 0.875000
vt 0.531250 0.546875
vt 0.656250 0.546875
vt 0.000000 0.984375
vt 0.015625 0.984375
vt 0.703125 0.406250
vt 0.703125 0.390625
vt 0.828125 0.281250
vt 0.828125 0.515625
vt 0.531250 0.281250
vt 0.656250 0.281250
vt 0.531250 0.828125
vt 0.531250 0.828125
vt 0.671875 0.828125
vt 0.671875 0.828125
vt 0.812500 0.578125
vt 0.968750 0.828125
vt 0.796875 0.140625
vt 0.796875 0.125000
vt 0.921875 0.015625
vt 0.921875 0.250000
vt 0.968750 0.578125
vt 0.812500 0.843750
vn -1.0000 0.0000 0.0000
vn 0.0000 0.0000 1.0000
vn 1.0000 0.0000 0.0000
vn 0.0000 -1.0000 0.0000
vn 0.0000 0.0000 -1.0000
vn -0.5767 0.8170 0.0000
vn 0.0000 1.0000 0.0000
vn -0.7548 0.5328 0.3827
vn -0.5777 0.4078 0.7071
vn -0.5777 0.4078 -0.7071
vn -0.7548 0.5328 -0.3827
vn -0.3126 0.2207 -0.9239
vn -0.8170 0.5767 -0.0000
vn -0.3126 0.2207 0.9239
vn 0.3126 -0.2207 0.9239
vn 0.3126 -0.2207 -0.9239
vn 0.5777 -0.4078 0.7071
vn 0.5777 -0.4078 -0.7071
vn 0.7548 -0.5328 0.3827
vn 0.8170 -0.5767 0.0000
vn 0.7548 -0.5328 -0.3827
vn -0.1168 0.9563 0.2680
vn 0.0072 0.8688 0.4951
vn -0.1603 0.9871 -0.0000
vn -0.1168 0.9563 -0.2680
vn 0.0072 0.8688 -0.4951
vn 0.9402 0.2102 0.2680
vn 0.8162 0.2977 0.4951
vn 0.9838 0.1794 -0.0000
vn 0.9402 0.2102 -0.2680
vn 0.8162 0.2977 -0.4951
vn 0.1928 0.7378 0.6469
vn 0.1928 0.7378 -0.6469
vn 0.4117 0.5832 0.7002
vn 0.4117 0.5832 -0.7002
vn 0.6306 0.4287 0.6469
vn 0.6306 0.4287 -0.6469
vn 0.5767 0.8170 -0.0000
vn -0.5767 -0.8169 0.0000
vn -0.5767 -0.8170 -0.0000
vn 0.8169 -0.5767 0.0000
vn -0.8169 0.5767 0.0000
vn 0.0000 0.8250 0.5652
vn 0.5766 -0.8170 0.0000
vn 0.0000 0.8250 -0.5652
vn -0.5766 -0.8170 0.0000
usemtl basic
s 1
f 4/1/1 1/2/1 3/3/1 6/4/1
f 2/5/2 8/6/2 3/7/2 1/8/2
f 2/9/3 5/10/3 7/11/3 8/12/3
f 5/13/4 2/14/4 1/15/4 4/16/4
f 5/17/5 4/18/5 6/19/5 7/20/5
f 23/21/3 20/22/3 14/23/3 21/24/3
f 13/25/1 19/26/1 15/27/1 9/28/1
f 23/29/5 111/30/5 109/31/5 15/32/5
f 9/33/6 15/34/6 16/35/6 10/36/6
f 9/37/2 21/38/2 14/39/2 13/40/2
f 111/41/4 107/42/4 112/43/4 109/44/4
f 106/45/4 105/46/4 108/47/4 110/48/4
f 14/39/7 20/49/7 19/50/7 13/40/7
f 59/51/8 57/52/9 25/53/9 28/54/8
f 62/55/10 61/56/11 32/57/11 34/58/10
f 63/59/12 62/55/10 34/58/10 38/60/12
f 61/56/11 60/61/13 30/62/13 32/57/11
f 58/63/14 64/64/2 39/65/2 35/66/14
f 65/67/5 63/59/12 38/60/12 42/68/5
f 64/64/2 66/69/15 43/70/15 39/65/2
f 67/71/16 65/67/5 42/68/5 46/72/16
f 66/69/15 68/73/17 48/74/17 43/70/15
f 69/75/18 67/71/16 46/72/16 55/76/18
f 60/77/13 59/51/8 28/54/8 30/78/13
f 68/73/17 70/79/19 49/80/19 48/74/17
f 70/79/19 71/81/20 51/82/20 49/80/19
f 71/81/20 72/83/21 53/84/21 51/82/20
f 72/83/21 69/75/18 55/76/18 53/84/21
f 57/52/9 58/63/14 35/66/14 25/53/9
f 21/85/2 106/86/2 12/87/2 24/88/2
f 27/89/22 28/90/22 25/91/23 26/92/23
f 29/93/24 30/94/24 28/90/22 27/89/22
f 31/95/25 32/96/25 30/97/24 29/98/24
f 33/99/26 34/100/26 32/96/25 31/95/25
f 49/101/27 50/102/27 47/103/28 48/104/28
f 51/105/29 52/106/29 50/102/27 49/101/27
f 53/107/30 54/108/30 52/106/29 51/105/29
f 55/109/31 56/110/31 54/108/30 53/107/30
f 26/92/23 25/91/23 35/111/32 36/112/32
f 33/99/26 37/113/33 38/114/33 34/100/26
f 36/112/32 35/111/32 39/115/34 40/116/34
f 38/114/33 37/113/33 41/117/35 42/118/35
f 40/116/34 39/115/34 43/119/36 44/120/36
f 42/118/35 41/117/35 45/121/37 46/122/37
f 44/120/36 43/119/36 48/104/28 47/103/28
f 46/122/37 45/121/37 56/110/31 55/109/31
f 41/123/38 37/124/38 33/125/38 31/126/38 29/127/38 27/128/38 26/129/38 36/130/38 40/131/38 44/132/38 47/133/38 50/134/38 52/135/38 54/136/38 56/137/38 45/138/38
f 69/139/39 72/140/40 104/141/40 97/142/39
f 61/143/40 62/144/40 93/145/40 92/146/40
f 58/147/39 57/148/40 89/149/40 98/150/39
f 62/144/40 63/151/39 94/152/39 93/145/40
f 60/153/40 61/143/40 92/146/40 91/154/40
f 64/155/40 58/147/39 98/150/39 99/156/40
f 63/151/39 65/157/40 95/158/40 94/152/39
f 66/159/39 64/155/40 99/156/40 100/160/39
f 65/157/40 67/161/39 96/162/39 95/158/40
f 68/163/39 66/159/39 100/160/39 101/164/39
f 73/165/9 83/166/14 98/167/14 89/168/9
f 81/169/21 82/170/18 97/171/18 104/172/21
f 80/173/41 81/169/21 104/172/21 103/174/41
f 78/175/19 80/173/41 103/174/41 102/176/19
f 79/177/17 78/175/19 102/176/19 101/178/17
f 75/179/42 74/180/8 90/181/8 91/182/42
f 82/170/18 88/183/16 96/184/16 97/171/18
f 87/185/15 79/177/17 101/178/17 100/186/15
f 88/183/16 86/187/5 95/188/5 96/184/16
f 85/189/2 87/185/15 100/186/15 99/190/2
f 86/187/5 84/191/12 94/192/12 95/188/5
f 83/166/14 85/189/2 99/190/2 98/167/14
f 76/193/11 75/194/42 91/195/42 92/196/11
f 84/191/12 77/197/10 93/198/10 94/192/12
f 77/197/10 76/193/11 92/196/11 93/198/10
f 74/180/8 73/165/9 89/168/9 90/181/8
f 57/148/40 59/199/40 90/200/40 89/149/40
f 72/140/40 71/201/40 103/202/40 104/141/40
f 71/201/40 70/203/40 102/204/40 103/202/40
f 70/203/40 68/163/39 101/164/39 102/204/40
f 59/199/40 60/205/40 91/206/40 90/200/40
f 67/161/39 69/139/39 97/142/39 96/162/39
f 20/49/5 23/29/5 15/32/5 19/50/5
f 105/207/2 9/33/2 10/36/2 11/208/2
f 106/209/2 21/38/2 9/37/2 105/210/2
f 110/211/43 108/212/43 11/213/43 12/214/43
f 15/34/5 109/215/5 17/216/5 16/35/5
f 111/217/5 23/218/5 22/219/5 18/220/5
f 109/44/44 112/43/44 17/221/44
f 108/47/44 105/46/44 11/222/44
f 112/223/45 107/224/45 18/225/45 17/226/45
f 106/45/46 110/48/46 12/227/46
f 107/42/46 111/41/46 18/228/46
f 22/219/38 23/218/38 21/85/38 24/88/38
